<?xml version="1.0" standalone="no"?>
<!DOCTYPE svg PUBLIC "-//W3C//DTD SVG 20010904//EN"
 "http://www.w3.org/TR/2001/REC-SVG-20010904/DTD/svg10.dtd">
<svg version="1.0" xmlns="http://www.w3.org/2000/svg"
 width="512.000000pt" height="512.000000pt" viewBox="0 0 512.000000 512.000000"
 preserveAspectRatio="xMidYMid meet">
<metadata>
Created by potrace 1.14, written by Peter Selinger 2001-2017
</metadata>
<g transform="translate(0.000000,512.000000) scale(0.100000,-0.100000)"
fill="#000000" stroke="none">
<path d="M2450 5090 c-47 -15 -170 -55 -275 -89 -1364 -432 -1236 -388 -1257
-429 -13 -26 -14 -40 -6 -65 6 -19 11 -151 12 -315 l2 -283 -22 -5 c-12 -3
-31 -15 -42 -27 -18 -20 -21 -39 -25 -172 -3 -82 -7 -160 -10 -171 -3 -12 -8
-39 -11 -60 -4 -22 -11 -64 -16 -94 -5 -30 -12 -71 -15 -90 -3 -19 -10 -57
-15 -85 -5 -27 -12 -67 -15 -87 -2 -21 -9 -55 -13 -75 -13 -60 -6 -104 22
-132 l25 -25 202 -1 c289 -1 299 6 264 205 -9 47 -18 101 -21 120 -2 19 -7 46
-10 60 -3 13 -7 38 -10 55 -2 16 -6 41 -9 55 -3 14 -8 41 -11 60 -8 51 -11 71
-19 111 -4 21 -8 95 -9 167 -2 141 -14 177 -58 184 l-23 3 -3 263 c-1 144 -1
262 0 262 2 0 95 -16 208 -35 113 -19 208 -35 212 -35 4 0 7 -92 7 -204 -1
-212 4 -239 41 -251 19 -6 20 -15 20 -355 0 -223 4 -359 11 -377 16 -43 48
-72 88 -79 61 -11 68 -19 76 -81 28 -228 146 -438 316 -565 l37 -27 -2 -92 -1
-91 -217 -142 c-119 -77 -279 -181 -354 -230 -123 -81 -212 -123 -299 -141
-52 -10 -225 -67 -265 -86 -171 -83 -306 -230 -369 -404 -36 -101 -40 -154
-41 -589 0 -489 0 -494 77 -572 78 -80 -73 -74 1938 -74 2016 0 1850 -7 1931
77 74 76 75 81 74 574 -1 422 -2 436 -25 522 -35 132 -90 229 -184 324 -103
104 -193 150 -438 221 -189 56 -186 55 -287 122 -39 26 -116 76 -171 112 -55
36 -173 113 -263 171 -89 59 -166 107 -171 107 -5 0 -8 43 -9 95 l0 94 46 38
c86 69 146 141 213 253 15 24 61 134 66 155 1 6 5 21 8 35 3 14 11 57 16 95
12 80 18 90 54 93 39 3 75 23 99 55 20 27 21 41 24 392 3 352 3 364 22 370 36
12 41 40 42 250 0 144 4 205 12 206 19 1 49 6 146 23 52 9 107 19 123 22 182
29 259 44 277 54 51 27 55 114 7 144 -12 8 -119 44 -237 81 -118 37 -224 71
-235 76 -11 4 -85 28 -165 53 -153 47 -255 80 -620 196 -272 87 -350 110 -370
109 -8 0 -53 -13 -100 -29z"/>
</g>
</svg>
